# xmcd
#
# Track frame offsets:
# 150
# 17142
# 34877
# 52475
# 66092
# 87707
# 104546
# 121168
# 135547
# 153805
# 169140
# 182234
# 199027
# 218130
# 233329
#
# Disc length: 3385 seconds
#
#
# Revision: 5
# Processed by: cddbd v1.5.1PL0 Copyright (c) Steve Scherf et al.
# Submitted via: FreeRIP 2.70 
#
DISCID=d30d370f
DTITLE=Garotos de ouro - irmãos e amigos cd1
DYEAR=1900
DGENRE=Rock
TTITLE0=Quebradeira
TTITLE1=Me bate Nega Veia
TTITLE2=O Socadão
TTITLE3=Rei do Batidão
TTITLE4=Pra Viver esse Amor
TTITLE5=Filha do Gaiteiro
TTITLE6=Irmãos e Amigos
TTITLE7=Esqueci
TTITLE8=Bica Meu Galo
TTITLE9=Ôh Saudade!
TTITLE10=Bem na moda da Fronteira
TTITLE11=S.O.S. Coração
TTITLE12=Bailezito
TTITLE13=Paixão Campeira
TTITLE14=Obrigado Patrão Velho
EXTD=
EXTT0=
EXTT1=
EXTT2=
EXTT3=
EXTT4=
EXTT5=
EXTT6=
EXTT7=
EXTT8=
EXTT9=
EXTT10=
EXTT11=
EXTT12=
EXTT13=
EXTT14=
PLAYORDER=
